<svg xmlns="http://www.w3.org/2000/svg" viewBox="0 0 1024 1024" width="1024" height="1024" role="img" aria-label="MeusÁudios">
  <defs>
    <linearGradient id="brandGradient" x1="0%" y1="0%" x2="100%" y2="100%">
      <stop offset="0%" stop-color="#EA580C" />
      <stop offset="55%" stop-color="#E11D48" />
      <stop offset="100%" stop-color="#D97706" />
    </linearGradient>
    <radialGradient id="sheen" cx="30%" cy="20%" r="70%">
      <stop offset="0%" stop-color="#FFFFFF" stop-opacity="0.28" />
      <stop offset="60%" stop-color="#FFFFFF" stop-opacity="0" />
    </radialGradient>
  </defs>

  <path
    d="M 512 32 C 800 32, 992 224, 992 512 C 992 800, 800 992, 512 992 C 224 992, 32 800, 32 512 C 32 224, 224 32, 512 32 Z"
    fill="url(#brandGradient)" />
  <path
    d="M 512 32 C 800 32, 992 224, 992 512 C 992 800, 800 992, 512 992 C 224 992, 32 800, 32 512 C 32 224, 224 32, 512 32 Z"
    fill="url(#sheen)" />

  <g fill="#FFFFFF">
    <rect x="200" y="450" width="80" height="160" rx="40" ry="40" opacity="0.78" />
    <rect x="312" y="370" width="80" height="320" rx="40" ry="40" opacity="0.92" />
    <rect x="424" y="262" width="80" height="540" rx="40" ry="40" />
    <rect x="536" y="330" width="80" height="400" rx="40" ry="40" opacity="0.96" />
    <rect x="648" y="406" width="80" height="248" rx="40" ry="40" opacity="0.84" />
    <rect x="760" y="468" width="64" height="128" rx="32" ry="32" opacity="0.7" />
    <!-- Acute accent as music-player play triangle, tilted up-right -->
    <path
      d="M 444 162
         Q 444 152, 454 154
         L 584 142
         Q 596 140, 588 158
         L 460 238
         Q 448 246, 442 234
         Z" />
  </g>
</svg>
