<svg xmlns="http://www.w3.org/2000/svg" viewBox="0 0 1280 320" width="1280" height="320" role="img" aria-label="MeusÁudios">
  <defs>
    <linearGradient id="wm-grad" x1="0%" y1="0%" x2="100%" y2="100%">
      <stop offset="0%" stop-color="#EA580C" />
      <stop offset="55%" stop-color="#E11D48" />
      <stop offset="100%" stop-color="#D97706" />
    </linearGradient>
    <radialGradient id="wm-sheen" cx="30%" cy="20%" r="70%">
      <stop offset="0%" stop-color="#FFFFFF" stop-opacity="0.25" />
      <stop offset="60%" stop-color="#FFFFFF" stop-opacity="0" />
    </radialGradient>
    <style>
      @import url('https://fonts.googleapis.com/css2?family=Fraunces:ital,opsz,wght@0,9..144,500..600;1,9..144,400..500&amp;display=swap');
      .wm-text { font-family: 'Fraunces', serif; font-weight: 500; }
      .wm-text-italic { font-family: 'Fraunces', serif; font-style: italic; font-weight: 400; }
    </style>
  </defs>

  <g transform="translate(40, 40)">
    <path
      d="M 120 0 C 188 0, 240 52, 240 120 C 240 188, 188 240, 120 240 C 52 240, 0 188, 0 120 C 0 52, 52 0, 120 0 Z"
      fill="url(#wm-grad)" />
    <path
      d="M 120 0 C 188 0, 240 52, 240 120 C 240 188, 188 240, 120 240 C 52 240, 0 188, 0 120 C 0 52, 52 0, 120 0 Z"
      fill="url(#wm-sheen)" />
    <g transform="scale(0.234)" fill="#FFFFFF">
      <rect x="200" y="450" width="80" height="160" rx="40" ry="40" opacity="0.78" />
      <rect x="312" y="370" width="80" height="320" rx="40" ry="40" opacity="0.92" />
      <rect x="424" y="262" width="80" height="540" rx="40" ry="40" />
      <rect x="536" y="330" width="80" height="400" rx="40" ry="40" opacity="0.96" />
      <rect x="648" y="406" width="80" height="248" rx="40" ry="40" opacity="0.84" />
      <rect x="760" y="468" width="64" height="128" rx="32" ry="32" opacity="0.7" />
      <path d="M 444 162 Q 444 152, 454 154 L 584 142 Q 596 140, 588 158 L 460 238 Q 448 246, 442 234 Z" />
    </g>
  </g>

  <text x="320" y="208" font-size="180" letter-spacing="-4" fill="#0F172A">
    <tspan class="wm-text">Meus</tspan><tspan class="wm-text-italic" fill="#EA580C">Áudios</tspan>
  </text>
</svg>
